<?xml version="1.0" encoding="UTF-8"?>
<svg width="700pt" height="700pt" version="1.1" viewBox="0 0 700 700" xmlns="http://www.w3.org/2000/svg" xmlns:xlink="http://www.w3.org/1999/xlink">
 <defs>
  <symbol id="o" overflow="visible">
   <path d="m34.109-2.0312c-1.7617 0.90625-3.5938 1.5898-5.5 2.0469-1.9062 0.46875-3.8984 0.70312-5.9688 0.70312-6.1797 0-11.074-1.7227-14.688-5.1719-3.6172-3.457-5.4219-8.1445-5.4219-14.062 0-5.9375 1.8047-10.629 5.4219-14.078 3.6133-3.457 8.5078-5.1875 14.688-5.1875 2.0703 0 4.0625 0.23438 5.9688 0.70312 1.9062 0.46094 3.7383 1.1484 5.5 2.0625v7.6719c-1.7812-1.207-3.5391-2.0938-5.2656-2.6562-1.7188-0.5625-3.5273-0.84375-5.4219-0.84375-3.418 0-6.1055 1.0938-8.0625 3.2812-1.9609 2.1875-2.9375 5.2031-2.9375 9.0469 0 3.8242 0.97656 6.8281 2.9375 9.0156 1.957 2.1875 4.6445 3.2812 8.0625 3.2812 1.8945 0 3.7031-0.28125 5.4219-0.84375 1.7266-0.5625 3.4844-1.4453 5.2656-2.6562z"/>
  </symbol>
  <symbol id="i" overflow="visible">
   <path d="m24.953-20.266c-0.78125-0.36328-1.5586-0.62891-2.3281-0.79688-0.77344-0.17578-1.543-0.26562-2.3125-0.26562-2.293 0-4.0586 0.73438-5.2969 2.2031-1.2305 1.4688-1.8438 3.5703-1.8438 6.2969v12.828h-8.8906v-27.844h8.8906v4.5781c1.1445-1.8203 2.457-3.1484 3.9375-3.9844 1.4883-0.84375 3.2695-1.2656 5.3438-1.2656 0.28906 0 0.60938 0.015625 0.95312 0.046875 0.35156 0.023438 0.86328 0.074219 1.5312 0.15625z"/>
  </symbol>
  <symbol id="c" overflow="visible">
   <path d="m32.062-14v2.5469h-20.797c0.20703 2.0859 0.95703 3.6523 2.25 4.7031 1.2891 1.043 3.0977 1.5625 5.4219 1.5625 1.875 0 3.7891-0.27344 5.75-0.82812 1.9688-0.5625 3.9883-1.4062 6.0625-2.5312v6.8594c-2.1055 0.79297-4.2109 1.3906-6.3125 1.7969-2.1055 0.40625-4.2109 0.60938-6.3125 0.60938-5.043 0-8.9609-1.2734-11.75-3.8281-2.793-2.5625-4.1875-6.1562-4.1875-10.781 0-4.5391 1.3672-8.1133 4.1094-10.719 2.75-2.6016 6.5234-3.9062 11.328-3.9062 4.375 0 7.875 1.3203 10.5 3.9531 2.625 2.6367 3.9375 6.1562 3.9375 10.562zm-9.1406-2.9531c0-1.6875-0.49609-3.0469-1.4844-4.0781-0.99219-1.0391-2.2773-1.5625-3.8594-1.5625-1.7305 0-3.1367 0.48438-4.2188 1.4531-1.0742 0.96875-1.7422 2.3672-2 4.1875z"/>
  </symbol>
  <symbol id="b" overflow="visible">
   <path d="m16.75-12.531c-1.8555 0-3.25 0.32031-4.1875 0.95312-0.9375 0.625-1.4062 1.5547-1.4062 2.7812 0 1.125 0.375 2.0117 1.125 2.6562 0.75781 0.63672 1.8125 0.95312 3.1562 0.95312 1.6758 0 3.082-0.59766 4.2188-1.7969 1.1445-1.207 1.7188-2.7188 1.7188-4.5312v-1.0156zm13.594-3.3594v15.891h-8.9688v-4.125c-1.1875 1.6875-2.5312 2.918-4.0312 3.6875-1.4922 0.76953-3.3047 1.1562-5.4375 1.1562-2.8867 0-5.2305-0.83594-7.0312-2.5156-1.793-1.6875-2.6875-3.875-2.6875-6.5625 0-3.2578 1.1172-5.6484 3.3594-7.1719 2.25-1.5312 5.7734-2.2969 10.578-2.2969h5.25v-0.6875c0-1.4062-0.55859-2.4375-1.6719-3.0938-1.1055-0.65625-2.8359-0.98438-5.1875-0.98438-1.9062 0-3.6836 0.19531-5.3281 0.57812-1.6367 0.375-3.1562 0.94531-4.5625 1.7031v-6.7812c1.9062-0.46875 3.8164-0.82031 5.7344-1.0625 1.9258-0.23828 3.8477-0.35938 5.7656-0.35938 5.0195 0 8.6445 0.99609 10.875 2.9844 2.2266 1.9805 3.3438 5.1953 3.3438 9.6406z"/>
  </symbol>
  <symbol id="a" overflow="visible">
   <path d="m14-35.75v7.9062h9.1719v6.375h-9.1719v11.797c0 1.293 0.25391 2.168 0.76562 2.625 0.50781 0.46094 1.5312 0.6875 3.0625 0.6875h4.5625v6.3594h-7.625c-3.5117 0-6-0.73438-7.4688-2.2031s-2.2031-3.957-2.2031-7.4688v-11.797h-4.4219v-6.375h4.4219v-7.9062z"/>
  </symbol>
  <symbol id="h" overflow="visible">
   <path d="m23.219-23.766v-14.906h8.9531v38.672h-8.9531v-4.0312c-1.2305 1.6484-2.5859 2.8516-4.0625 3.6094-1.4688 0.75781-3.1719 1.1406-5.1094 1.1406-3.4297 0-6.2461-1.3594-8.4531-4.0781-2.2109-2.7266-3.3125-6.2383-3.3125-10.531 0-4.2891 1.1016-7.8008 3.3125-10.531 2.207-2.7266 5.0234-4.0938 8.4531-4.0938 1.9141 0 3.6133 0.38672 5.0938 1.1562 1.4883 0.77344 2.8477 1.9688 4.0781 3.5938zm-5.875 18.031c1.9062 0 3.3594-0.69531 4.3594-2.0938 1.0078-1.3945 1.5156-3.4141 1.5156-6.0625 0-2.6562-0.50781-4.6758-1.5156-6.0625-1-1.3945-2.4531-2.0938-4.3594-2.0938-1.8867 0-3.3281 0.69922-4.3281 2.0938-1 1.3867-1.5 3.4062-1.5 6.0625 0 2.6484 0.5 4.668 1.5 6.0625 1 1.3984 2.4414 2.0938 4.3281 2.0938z"/>
  </symbol>
  <symbol id="g" overflow="visible">
   <path d="m19.094-5.7344c1.9062 0 3.3594-0.69531 4.3594-2.0938 1-1.3945 1.5-3.4141 1.5-6.0625 0-2.6562-0.5-4.6758-1.5-6.0625-1-1.3945-2.4531-2.0938-4.3594-2.0938s-3.3711 0.70312-4.3906 2.1094c-1.0234 1.3984-1.5312 3.4141-1.5312 6.0469 0 2.6367 0.50781 4.6562 1.5312 6.0625 1.0195 1.3984 2.4844 2.0938 4.3906 2.0938zm-5.9219-18.031c1.2266-1.625 2.5859-2.8203 4.0781-3.5938 1.4883-0.76953 3.2031-1.1562 5.1406-1.1562 3.4375 0 6.2539 1.3672 8.4531 4.0938 2.207 2.7305 3.3125 6.2422 3.3125 10.531 0 4.293-1.1055 7.8047-3.3125 10.531-2.1992 2.7188-5.0156 4.0781-8.4531 4.0781-1.9375 0-3.6523-0.38672-5.1406-1.1562-1.4922-0.76953-2.8516-1.9688-4.0781-3.5938v4.0312h-8.8906v-38.672h8.8906z"/>
  </symbol>
  <symbol id="f" overflow="visible">
   <path d="m0.625-27.844h8.8906l7.4844 18.891 6.3594-18.891h8.9062l-11.703 30.484c-1.1797 3.0938-2.5547 5.2539-4.125 6.4844-1.5625 1.2383-3.6328 1.8594-6.2031 1.8594h-5.1406v-5.8438h2.7812c1.5078 0 2.6094-0.24219 3.2969-0.71875 0.6875-0.48047 1.2227-1.3398 1.6094-2.5781l0.25-0.78125z"/>
  </symbol>
  <symbol id="e" overflow="visible">
   <path d="m14.25-29.875v22.641h3.4219c3.9141 0 6.9062-0.96875 8.9688-2.9062s3.0938-4.7539 3.0938-8.4531c0-3.6758-1.0312-6.4727-3.0938-8.3906-2.0547-1.9258-5.043-2.8906-8.9688-2.8906zm-9.5781-7.2344h10.094c5.6328 0 9.832 0.40234 12.594 1.2031 2.7578 0.80469 5.125 2.168 7.0938 4.0938 1.7383 1.668 3.0312 3.5938 3.875 5.7812s1.2656 4.668 1.2656 7.4375c0 2.8047-0.42188 5.3047-1.2656 7.5-0.84375 2.1875-2.1367 4.1211-3.875 5.7969-1.9922 1.9297-4.3828 3.293-7.1719 4.0938-2.7812 0.80469-6.9531 1.2031-12.516 1.2031h-10.094z"/>
  </symbol>
  <symbol id="n" overflow="visible">
   <path d="m4.2812-27.844h8.8906v27.844h-8.8906zm0-10.828h8.8906v7.25h-8.8906z"/>
  </symbol>
  <symbol id="m" overflow="visible">
   <path d="m32.266-16.953v16.953h-8.9531v-12.969c0-2.4062-0.054688-4.0625-0.15625-4.9688-0.10547-0.91406-0.29297-1.5859-0.5625-2.0156-0.34375-0.58203-0.82031-1.0352-1.4219-1.3594-0.59375-0.32031-1.2734-0.48438-2.0312-0.48438-1.8555 0-3.3125 0.71875-4.375 2.1562-1.0625 1.4297-1.5938 3.4062-1.5938 5.9375v13.703h-8.8906v-27.844h8.8906v4.0781c1.3438-1.625 2.7695-2.8203 4.2812-3.5938 1.5078-0.76953 3.1758-1.1562 5-1.1562 3.207 0 5.6445 0.99219 7.3125 2.9688 1.6641 1.9688 2.5 4.8359 2.5 8.5938z"/>
  </symbol>
  <symbol id="d" overflow="visible">
   <path d="m17.531-22.141c-1.9805 0-3.4922 0.71094-4.5312 2.125-1.0312 1.418-1.5469 3.4609-1.5469 6.125 0 2.668 0.51562 4.7109 1.5469 6.125 1.0391 1.418 2.5508 2.125 4.5312 2.125 1.9375 0 3.4141-0.70703 4.4375-2.125 1.0312-1.4141 1.5469-3.457 1.5469-6.125 0-2.6641-0.51562-4.707-1.5469-6.125-1.0234-1.4141-2.5-2.125-4.4375-2.125zm0-6.375c4.7812 0 8.5156 1.2969 11.203 3.8906 2.6953 2.5859 4.0469 6.1641 4.0469 10.734 0 4.5742-1.3516 8.1523-4.0469 10.734-2.6875 2.5859-6.4219 3.875-11.203 3.875-4.8125 0-8.5742-1.2891-11.281-3.875-2.7109-2.582-4.0625-6.1602-4.0625-10.734 0-4.5703 1.3516-8.1484 4.0625-10.734 2.707-2.5938 6.4688-3.8906 11.281-3.8906z"/>
  </symbol>
  <symbol id="l" overflow="visible">
   <path d="m26.031-26.969v6.7656c-1.9062-0.80078-3.75-1.3984-5.5312-1.7969-1.7734-0.39453-3.4453-0.59375-5.0156-0.59375-1.6875 0-2.9453 0.21484-3.7656 0.64062-0.82422 0.41797-1.2344 1.0625-1.2344 1.9375 0 0.71875 0.3125 1.2734 0.9375 1.6562 0.625 0.375 1.7383 0.65234 3.3438 0.82812l1.5625 0.23438c4.5625 0.57422 7.6289 1.5273 9.2031 2.8594 1.5703 1.3242 2.3594 3.4023 2.3594 6.2344 0 2.9688-1.0938 5.1992-3.2812 6.6875-2.1875 1.4922-5.4531 2.2344-9.7969 2.2344-1.8359 0-3.7344-0.14844-5.7031-0.4375-1.9609-0.28906-3.9766-0.72266-6.0469-1.2969v-6.7656c1.7695 0.86719 3.5859 1.5156 5.4531 1.9531 1.8633 0.42969 3.7539 0.64062 5.6719 0.64062 1.7383 0 3.0469-0.23828 3.9219-0.71875 0.88281-0.48828 1.3281-1.2031 1.3281-2.1406 0-0.80078-0.30469-1.3945-0.90625-1.7812-0.60547-0.39453-1.8125-0.69531-3.625-0.90625l-1.5625-0.20312c-3.9609-0.5-6.7344-1.4141-8.3281-2.75-1.5859-1.3438-2.375-3.3828-2.375-6.125 0-2.9453 1.0078-5.1328 3.0312-6.5625 2.0195-1.4258 5.1172-2.1406 9.2969-2.1406 1.6328 0 3.3516 0.125 5.1562 0.375 1.8125 0.25 3.7812 0.64062 5.9062 1.1719z"/>
  </symbol>
  <symbol id="k" overflow="visible">
   <path d="m22.594-38.672v5.8438h-4.9219c-1.2617 0-2.1406 0.23047-2.6406 0.6875-0.49219 0.44922-0.73438 1.2344-0.73438 2.3594v1.9375h7.6094v6.375h-7.6094v21.469h-8.9062v-21.469h-4.4219v-6.375h4.4219v-1.9375c0-3.0312 0.84375-5.2695 2.5312-6.7188 1.6953-1.4453 4.3164-2.1719 7.8594-2.1719z"/>
  </symbol>
  <symbol id="j" overflow="visible">
   <path d="m4.6719-37.109h9.5781v29.875h16.797v7.2344h-26.375z"/>
  </symbol>
 </defs>
 <g>
  <path d="m339.22 162.57h-91.121c-2.8125 0-5.0898-2.2773-5.0898-5.0898v-101.98c0-13.223 10.758-23.984 23.984-23.984h53.344c13.215 0 23.973 10.758 23.973 23.984v101.98c0 2.8125-2.2773 5.0898-5.0898 5.0898zm-86.031-10.18h80.938v-96.887c0-7.6055-6.1836-13.801-13.793-13.801h-53.344c-7.6055 0-13.801 6.1953-13.801 13.801z"/>
  <path d="m356.17 365.53c-29.98 0-52.133-7.0195-66.113-21-16.117-16.137-53.434-21.535-107.99-15.629-2.7461 0.25-5.0117-1.4727-5.5391-4.0469l-13.422-66.012c-6.1953-30.336 0.79688-62.484 18.266-83.891 11.871-14.535 27.441-22.551 43.848-22.551h136.81c16.367 0 31.918 8.0039 43.789 22.531 17.5 21.406 24.551 53.555 18.395 83.91l-20.047 98.645c-0.41797 2.0664-2.0664 3.6602-4.1445 4.0078-16.098 2.6914-30.723 4.0352-43.848 4.0352zm-58.914-28.199c21.25 21.238 64.094 19.926 97.633 14.676l19.34-95.195c5.5664-27.434-0.67578-56.34-16.285-75.438-9.9141-12.121-22.66-18.793-35.914-18.793l-136.81-0.003906c-13.285 0-26.062 6.6836-35.965 18.812-15.582 19.09-21.777 47.984-16.168 75.41l12.5 61.5c55.949-5.5391 93.523 0.88281 111.67 19.031z"/>
  <path d="m365.04 529.46h-142.76c-2.418 0-4.5039-1.6992-4.9922-4.0781l-40.758-200.54c-0.27734-1.4023 0.039062-2.8633 0.88672-4.0156 0.84375-1.1523 2.1367-1.9102 3.5586-2.0586 58.547-6.332 97.652-0.089843 116.29 18.555 21.984 21.984 67.098 19.809 101.07 14.121 1.6992-0.29687 3.3398 0.28906 4.5039 1.4805 1.1641 1.2148 1.6602 2.9141 1.332 4.5547l-34.137 167.9c-0.48828 2.375-2.5742 4.0742-4.9922 4.0742zm-138.61-10.18h134.45l31.84-156.64c-48.98 7.1289-83.504 1.0547-102.66-18.105-15.562-15.582-50.918-21.168-102.43-16.199z"/>
  <path d="m293.67 102.13c-0.71484 0-1.3242-0.10938-1.9375-0.40625-0.60547-0.20703-1.2148-0.61719-1.7305-1.125-0.40625-0.40625-0.81641-1.0156-1.0156-1.6289-0.30859-0.60547-0.40625-1.2227-0.40625-1.9297 0-1.332 0.50781-2.6562 1.4219-3.5703 1.9375-1.9297 5.3984-1.9297 7.2305 0 0.92578 0.91406 1.5312 2.2383 1.5312 3.5703 0 0.70703-0.097657 1.3242-0.40625 1.9297-0.30859 0.61719-0.60547 1.2227-1.125 1.6289-0.91797 1.0156-2.2383 1.5312-3.5625 1.5312z"/>
  <path d="m404 70.461c-2.3281 0-4.4258-1.6016-4.9609-3.957-0.625-2.7461 1.082-5.4688 3.8281-6.0938l130.03-29.73c2.7656-0.65625 5.4805 1.0938 6.0938 3.8281 0.625 2.7461-1.082 5.4688-3.8281 6.0938l-130.02 29.73c-0.37891 0.089844-0.76562 0.12891-1.1367 0.12891z"/>
  <path d="m534.02 102.14h-130.03c-2.8125 0-5.0898-2.2773-5.0898-5.0898s2.2773-5.0898 5.0898-5.0898l130.03-0.003907c2.8125 0 5.0898 2.2773 5.0898 5.0898 0.003907 2.8164-2.2734 5.0938-5.0898 5.0938z"/>
  <path d="m534.02 163.55c-0.36719 0-0.75391-0.039062-1.1328-0.12891l-130.03-29.73c-2.7461-0.625-4.4531-3.3516-3.8281-6.0938 0.61719-2.7227 3.3203-4.4844 6.0938-3.8281l130.03 29.73c2.7461 0.625 4.4531 3.3516 3.8281 6.0938-0.53516 2.3555-2.6328 3.957-4.9609 3.957z"/>
  <use x="70" y="712.726562" xlink:href="#o"/>
  <use x="107.363281" y="712.726562" xlink:href="#i"/>
  <use x="132.46875" y="712.726562" xlink:href="#c"/>
  <use x="166.996094" y="712.726562" xlink:href="#b"/>
  <use x="201.347656" y="712.726562" xlink:href="#a"/>
  <use x="225.683594" y="712.726562" xlink:href="#c"/>
  <use x="260.214844" y="712.726562" xlink:href="#h"/>
  <use x="314.378906" y="712.726562" xlink:href="#g"/>
  <use x="350.820312" y="712.726562" xlink:href="#f"/>
  <use x="401.730469" y="712.726562" xlink:href="#e"/>
  <use x="443.988281" y="712.726562" xlink:href="#n"/>
  <use x="461.4375" y="712.726562" xlink:href="#m"/>
  <use x="497.679688" y="712.726562" xlink:href="#d"/>
  <use x="532.65625" y="712.726562" xlink:href="#l"/>
  <use x="562.957031" y="712.726562" xlink:href="#d"/>
  <use x="597.933594" y="712.726562" xlink:href="#k"/>
  <use x="620.082031" y="712.726562" xlink:href="#a"/>
  <use x="644.417969" y="712.726562" xlink:href="#j"/>
  <use x="676.855469" y="712.726562" xlink:href="#b"/>
 </g>
</svg>
